<svg width="595" height="217" viewBox="0 0 595 217" fill="none" xmlns="http://www.w3.org/2000/svg">
<path d="M43.4334 148.14C37.3104 146.277 33.7186 143.246 32.6581 139.048C31.7251 134.888 33.3023 129.276 37.3896 122.213L69.2093 68.5569L63.0863 66.6945C61.1729 66.1125 60.6421 64.8435 61.4939 62.8877C62.0263 61.6652 63.6274 60.1449 66.2973 58.3267C69.0947 56.5473 72.4451 54.6592 76.3485 52.6625C80.2518 50.6657 84.1657 48.8106 88.0901 47.0971C92.1421 45.4224 95.726 44.1591 98.8418 43.3072C102.011 42.333 104.233 42.0399 105.509 42.4279C106.912 42.8547 107.629 43.6958 107.66 44.9512C107.745 46.0844 107.313 47.4067 106.366 48.9183L98.3348 62.8802L119.765 69.3988C121.679 69.9808 122.63 70.6162 122.619 71.305C122.735 72.0326 122.246 72.9912 121.15 74.1806C117.809 77.8713 115.224 79.9922 113.395 80.5433C111.747 81.011 109.136 80.7016 105.565 79.6152L90.2572 74.9591L68.3836 112.744C67.1169 114.989 65.9034 117.112 64.7432 119.112C63.7106 121.152 62.8216 123.027 62.0762 124.738C60.8517 127.55 60.6749 129.78 61.5456 131.43C62.4697 132.957 64.5262 134.205 67.7153 135.175C70.7768 136.106 73.658 136.291 76.359 135.728C79.1875 135.204 81.0483 135.078 81.9412 135.349C82.9617 135.66 83.2058 136.426 82.6734 137.648C82.141 138.871 80.694 140.369 78.3325 142.142C76.0986 143.955 73.1364 145.615 69.446 147.123C65.9364 148.547 61.9488 149.411 57.483 149.713C52.964 150.139 48.2808 149.614 43.4334 148.14Z" fill="#FF8F2D"/>
<path d="M119.585 68.4948C125.708 70.3572 129.299 73.3878 130.36 77.5867C131.293 81.7467 129.716 87.3582 125.628 94.4211L93.8088 148.077L99.9318 149.94C101.845 150.522 102.376 151.791 101.524 153.747C100.992 154.969 99.3906 156.489 96.7208 158.308C93.9233 160.087 90.5729 161.975 86.6696 163.972C82.7663 165.969 78.8524 167.824 74.928 169.537C70.876 171.212 67.2921 172.475 64.1763 173.327C61.0072 174.301 58.7849 174.594 57.5093 174.206C56.1061 173.78 55.3889 172.938 55.3578 171.683C55.2735 170.55 55.705 169.228 56.6522 167.716L64.6832 153.754L43.2527 147.236C41.3392 146.653 40.388 146.018 40.3991 145.329C40.2826 144.602 40.7723 143.643 41.8682 142.454C45.2091 138.763 47.7941 136.642 49.6233 136.091C51.2716 135.623 53.8816 135.933 57.4534 137.019L72.7609 141.675L94.6345 103.89C95.9012 101.645 97.1146 99.5225 98.2748 97.522C99.3075 95.4827 100.196 93.6073 100.942 91.8959C102.166 89.0843 102.343 86.8539 101.472 85.2047C100.548 83.6777 98.4918 82.4292 95.3028 81.4591C92.2413 80.5279 89.36 80.3437 86.6591 80.9065C83.8305 81.4305 81.9698 81.5567 81.0769 81.2851C80.0564 80.9747 79.8123 80.2083 80.3447 78.9859C80.8771 77.7635 82.3241 76.2655 84.6856 74.4919C86.9195 72.6795 89.8817 71.0195 93.572 69.5117C97.0816 68.0873 101.069 67.2237 105.535 66.9208C110.054 66.4957 114.737 67.0203 119.585 68.4948Z" fill="#FF8F2D"/>
<path d="M153.936 149.048C147.45 149.048 142.33 148.067 138.576 146.104C134.906 144.056 133.072 141.325 133.072 137.912C133.072 136.376 133.285 134.968 133.712 133.688C134.224 132.323 134.949 131.64 135.888 131.64C136.229 131.64 136.613 131.725 137.04 131.896C137.466 132.067 138.277 132.536 139.472 133.304C141.178 134.413 143.056 135.437 145.104 136.376C147.237 137.315 149.37 138.083 151.503 138.68C153.722 139.192 155.77 139.448 157.648 139.448C160.378 139.448 162.341 138.808 163.536 137.528C164.816 136.163 165.456 134.371 165.456 132.152C165.456 130.531 164.944 129.208 163.92 128.184C162.981 127.075 161.445 125.837 159.312 124.472L151.376 119.352C148.048 117.219 145.232 114.957 142.928 112.568C140.709 110.093 139.6 106.893 139.6 102.968C139.6 97.4213 141.733 92.9413 146 89.528C150.266 86.0293 156.282 84.28 164.048 84.28C169.509 84.28 173.52 84.8347 176.08 85.944C178.64 87.0533 179.92 88.9733 179.92 91.704C179.92 93.8373 179.578 95.6293 178.896 97.08C178.298 98.5307 177.445 99.256 176.336 99.256C175.994 99.256 175.525 99.1707 174.928 99C174.416 98.8293 173.946 98.616 173.52 98.36C172.837 97.9333 171.77 97.336 170.319 96.568C168.869 95.8 167.248 95.1173 165.456 94.52C163.664 93.8373 161.786 93.496 159.824 93.496C157.861 93.496 156.24 94.0933 154.96 95.288C153.765 96.3973 153.168 97.9333 153.168 99.896C153.168 101.517 153.68 102.883 154.704 103.992C155.728 105.101 157.434 106.253 159.824 107.448L168.144 111.288C171.642 112.909 174.458 114.829 176.592 117.048C178.81 119.181 179.92 122.381 179.92 126.648C179.92 131.683 178.682 135.864 176.208 139.192C173.818 142.52 170.618 144.995 166.608 146.616C162.682 148.237 158.458 149.048 153.936 149.048ZM427.856 149.048C421.285 149.048 416.208 147 412.624 142.904C409.04 138.723 407.248 133.005 407.248 125.752C407.248 119.693 408.101 114.147 409.808 109.112C411.514 104.077 413.904 99.6827 416.976 95.928C420.047 92.1733 423.632 89.272 427.728 87.224C431.909 85.176 436.432 84.152 441.296 84.152C447.098 84.152 451.536 85.3893 454.608 87.864C457.68 90.3387 459.216 93.88 459.216 98.488C459.216 103.181 457.637 107.277 454.48 110.776C451.408 114.275 446.928 117.261 441.04 119.736C435.237 122.211 428.282 124.301 420.176 126.008L418.512 118.328C423.205 117.731 427.514 116.707 431.44 115.256C435.365 113.805 438.522 111.885 440.912 109.496C443.301 107.021 444.496 104.12 444.496 100.792C444.496 98.488 444.026 96.7387 443.088 95.544C442.234 94.3493 440.656 93.752 438.352 93.752C434.853 93.752 431.866 95.032 429.392 97.592C427.002 100.152 425.168 103.48 423.888 107.576C422.693 111.672 422.096 116.024 422.096 120.632C422.096 126.861 423.034 131.043 424.912 133.176C426.874 135.224 429.733 136.248 433.488 136.248C437.413 136.248 440.826 135.651 443.728 134.456C446.714 133.176 449.274 131.853 451.408 130.488C452.09 130.061 452.688 129.72 453.2 129.464C453.712 129.208 454.138 129.08 454.48 129.08C454.906 129.08 455.248 129.251 455.504 129.592C455.76 129.933 455.888 130.317 455.888 130.744C455.888 132.28 455.205 134.072 453.84 136.12C452.474 138.168 450.512 140.173 447.952 142.136C445.477 144.099 442.533 145.72 439.12 147C435.706 148.365 431.952 149.048 427.856 149.048ZM480.128 143.928L477.057 124.6C480.214 116.408 483.414 109.325 486.657 103.352C489.985 97.2933 493.355 92.6 496.769 89.272C500.182 85.944 503.638 84.28 507.137 84.28C509.099 84.28 510.507 84.92 511.361 86.2C512.214 87.3947 512.641 88.9307 512.641 90.808C512.641 92.5147 512.427 94.1787 512.001 95.8C511.659 97.336 511.105 98.616 510.337 99.64C509.654 100.664 508.801 101.176 507.777 101.176C506.838 101.176 505.771 100.877 504.577 100.28C503.467 99.6827 501.931 99.384 499.969 99.384C498.689 99.384 497.067 100.707 495.104 103.352C493.142 105.997 491.094 109.539 488.961 113.976C486.913 118.328 485.078 123.149 483.457 128.44C481.835 133.645 480.726 138.808 480.128 143.928ZM469.377 148.792C468.267 148.792 467.414 148.579 466.817 148.152C466.305 147.811 466.006 146.829 465.921 145.208C465.921 143.587 466.134 140.984 466.561 137.4L472.577 84.152H481.537C482.817 84.152 483.969 85.0907 484.993 86.968C486.017 88.8453 486.529 90.9787 486.529 93.368C486.529 94.4773 486.187 96.2267 485.505 98.616C484.907 100.92 484.182 103.395 483.329 106.04C482.475 108.6 481.707 110.861 481.025 112.824L477.697 123.32L482.433 122.552L480.128 143.928C480.043 144.781 479.531 145.549 478.593 146.232C477.654 146.829 476.545 147.299 475.265 147.64C474.07 148.067 472.918 148.365 471.809 148.536C470.699 148.707 469.889 148.792 469.377 148.792ZM531.936 149.048C525.45 149.048 520.33 148.067 516.576 146.104C512.906 144.056 511.072 141.325 511.072 137.912C511.072 136.376 511.285 134.968 511.712 133.688C512.224 132.323 512.949 131.64 513.888 131.64C514.229 131.64 514.613 131.725 515.04 131.896C515.466 132.067 516.277 132.536 517.472 133.304C519.178 134.413 521.056 135.437 523.104 136.376C525.237 137.315 527.37 138.083 529.503 138.68C531.722 139.192 533.77 139.448 535.648 139.448C538.378 139.448 540.341 138.808 541.536 137.528C542.816 136.163 543.456 134.371 543.456 132.152C543.456 130.531 542.944 129.208 541.92 128.184C540.981 127.075 539.445 125.837 537.312 124.472L529.376 119.352C526.048 117.219 523.232 114.957 520.928 112.568C518.709 110.093 517.6 106.893 517.6 102.968C517.6 97.4213 519.733 92.9413 524 89.528C528.266 86.0293 534.282 84.28 542.048 84.28C547.509 84.28 551.52 84.8347 554.08 85.944C556.64 87.0533 557.92 88.9733 557.92 91.704C557.92 93.8373 557.578 95.6293 556.896 97.08C556.298 98.5307 555.445 99.256 554.336 99.256C553.994 99.256 553.525 99.1707 552.928 99C552.416 98.8293 551.946 98.616 551.52 98.36C550.837 97.9333 549.77 97.336 548.319 96.568C546.869 95.8 545.248 95.1173 543.456 94.52C541.664 93.8373 539.786 93.496 537.824 93.496C535.861 93.496 534.24 94.0933 532.96 95.288C531.765 96.3973 531.168 97.9333 531.168 99.896C531.168 101.517 531.68 102.883 532.704 103.992C533.728 105.101 535.434 106.253 537.824 107.448L546.144 111.288C549.642 112.909 552.458 114.829 554.592 117.048C556.81 119.181 557.92 122.381 557.92 126.648C557.92 131.683 556.682 135.864 554.208 139.192C551.818 142.52 548.618 144.995 544.608 146.616C540.682 148.237 536.458 149.048 531.936 149.048Z" fill="#F6F0E8"/>
<path d="M230.009 148.28C229.326 148.28 228.729 147.853 228.217 147C227.79 146.061 227.491 145.037 227.321 143.928C227.15 142.819 227.065 141.923 227.065 141.24C227.065 140.045 227.15 138.509 227.321 136.632C227.491 134.755 227.705 132.792 227.961 130.744C228.217 128.611 228.473 126.776 228.729 125.24L230.905 111.928C231.161 110.221 231.417 108.643 231.673 107.192C231.929 105.656 232.057 104.035 232.057 102.328C232.057 101.048 231.801 100.067 231.289 99.384C230.777 98.7013 230.094 98.36 229.241 98.36C228.131 98.36 226.297 99.4267 223.737 101.56C221.262 103.608 218.574 106.595 215.673 110.52C212.857 114.445 210.254 119.224 207.865 124.856C205.561 130.403 204.067 136.717 203.385 143.8L200.185 124.6C203.683 114.701 207.609 106.808 211.961 100.92C216.313 95.032 220.622 90.808 224.889 88.248C229.155 85.6027 232.91 84.28 236.153 84.28C239.907 84.28 242.638 85.3893 244.345 87.608C246.051 89.7413 246.905 92.5147 246.905 95.928C246.905 97.8053 246.734 99.768 246.393 101.816C246.137 103.864 245.838 105.997 245.497 108.216L239.353 148.28H230.009ZM191.993 148.792C190.883 148.792 190.03 148.536 189.433 148.024C188.921 147.597 188.665 146.573 188.665 144.952C188.665 143.331 188.835 140.813 189.177 137.4L194.681 86.968C195.193 82.104 195.833 77.2827 196.601 72.504C197.369 67.64 197.881 62.776 198.137 57.912H207.097C208.803 57.912 210.041 59.064 210.809 61.368C211.662 63.672 212.089 66.0187 212.089 68.408C212.089 70.2853 212.003 71.992 211.833 73.528C211.662 74.9787 211.406 76.5147 211.065 78.136C210.723 79.7573 210.254 81.8053 209.657 84.28L201.465 121.784L205.689 116.536C205.091 121.997 204.622 127.16 204.281 132.024C203.939 136.888 203.641 140.813 203.385 143.8C203.385 144.653 202.617 145.464 201.081 146.232C199.63 147 198.009 147.597 196.217 148.024C194.425 148.536 193.017 148.792 191.993 148.792ZM268.572 149.048C263.793 149.048 260.38 147.128 258.332 143.288C256.284 139.363 255.26 133.901 255.26 126.904C255.26 120.675 256.156 114.957 257.948 109.752C259.825 104.547 262.342 100.067 265.5 96.312C268.657 92.472 272.326 89.528 276.508 87.48C280.689 85.3467 285.126 84.28 289.819 84.28C293.489 84.28 296.817 84.792 299.804 85.816C302.876 86.7547 305.478 87.736 307.612 88.76L303.9 102.2C301.596 100.664 298.993 99.256 296.092 97.976C293.276 96.696 290.63 95.7147 288.156 95.032C285.766 94.264 283.974 93.88 282.78 93.88C280.39 93.88 278.172 95.0747 276.124 97.464C274.161 99.768 272.582 103.011 271.388 107.192C270.278 111.288 269.724 116.024 269.724 121.4C269.724 126.349 270.065 130.104 270.748 132.664C271.516 135.224 272.71 136.504 274.332 136.504C275.441 136.504 277.318 135.267 279.964 132.792C282.609 130.232 285.809 126.008 289.564 120.12C293.318 114.232 297.286 106.253 301.468 96.184L305.052 107.576C300.444 117.816 296.049 125.965 291.868 132.024C287.686 138.083 283.676 142.435 279.836 145.08C275.996 147.725 272.241 149.048 268.572 149.048ZM299.164 148.28C297.457 148.28 296.433 147.469 296.092 145.848C295.75 144.141 295.58 142.349 295.58 140.472C295.58 139.021 295.75 137.229 296.092 135.096C296.518 132.963 297.03 130.659 297.628 128.184C298.225 125.709 298.865 123.277 299.548 120.888L302.364 111.288L298.652 107.96L301.724 88.632C304.454 88.2053 306.844 87.6507 308.892 86.968C311.025 86.2853 312.774 85.688 314.14 85.176C315.59 84.664 316.614 84.408 317.212 84.408C318.15 84.408 318.62 84.92 318.62 85.944C318.62 86.3707 318.065 88.2053 316.956 91.448C315.932 94.6053 314.78 98.6587 313.5 103.608C312.305 108.557 311.409 113.933 310.812 119.736L308.124 148.28H299.164Z" fill="#F6F0E8"/>
<path d="M337.458 149.048C333.363 149.048 330.461 147.853 328.755 145.464C327.133 143.075 326.621 139.32 327.219 134.2L332.211 95.16H328.115C326.835 95.16 326.195 94.4773 326.195 93.112C326.195 92.2587 326.749 91.0213 327.859 89.4C329.053 87.7787 330.547 85.9867 332.339 84.024C334.131 82.0613 335.965 80.184 337.843 78.392C339.805 76.6 341.597 75.1493 343.219 74.04C344.84 72.8453 346.077 72.248 346.931 72.248C347.869 72.248 348.509 72.632 348.851 73.4C349.192 74.0827 349.277 74.9787 349.107 76.088L347.955 86.2H362.291C363.571 86.2 364.296 86.4133 364.467 86.84C364.723 87.2667 364.68 87.9493 364.339 88.888C363.315 91.7893 362.333 93.5813 361.395 94.264C360.541 94.8613 358.92 95.16 356.531 95.16H346.291L343.091 122.552C342.92 124.173 342.749 125.709 342.579 127.16C342.493 128.611 342.451 129.933 342.451 131.128C342.451 133.091 342.92 134.499 343.859 135.352C344.797 136.12 346.333 136.504 348.467 136.504C350.515 136.504 352.264 136.077 353.715 135.224C355.251 134.371 356.317 133.944 356.915 133.944C357.597 133.944 357.939 134.371 357.939 135.224C357.939 136.077 357.469 137.272 356.531 138.808C355.677 140.344 354.355 141.923 352.562 143.544C350.856 145.08 348.723 146.36 346.163 147.384C343.603 148.493 340.701 149.048 337.458 149.048ZM380.458 149.048C376.363 149.048 373.461 147.853 371.755 145.464C370.133 143.075 369.621 139.32 370.219 134.2L375.211 95.16H371.115C369.835 95.16 369.195 94.4773 369.195 93.112C369.195 92.2587 369.749 91.0213 370.859 89.4C372.053 87.7787 373.547 85.9867 375.339 84.024C377.131 82.0613 378.965 80.184 380.843 78.392C382.805 76.6 384.597 75.1493 386.219 74.04C387.84 72.8453 389.077 72.248 389.931 72.248C390.869 72.248 391.509 72.632 391.851 73.4C392.192 74.0827 392.277 74.9787 392.107 76.088L390.955 86.2H405.291C406.571 86.2 407.296 86.4133 407.467 86.84C407.723 87.2667 407.68 87.9493 407.339 88.888C406.315 91.7893 405.333 93.5813 404.395 94.264C403.541 94.8613 401.92 95.16 399.531 95.16H389.291L386.091 122.552C385.92 124.173 385.749 125.709 385.579 127.16C385.493 128.611 385.451 129.933 385.451 131.128C385.451 133.091 385.92 134.499 386.859 135.352C387.797 136.12 389.333 136.504 391.467 136.504C393.515 136.504 395.264 136.077 396.715 135.224C398.251 134.371 399.317 133.944 399.915 133.944C400.597 133.944 400.939 134.371 400.939 135.224C400.939 136.077 400.469 137.272 399.531 138.808C398.677 140.344 397.355 141.923 395.562 143.544C393.856 145.08 391.723 146.36 389.163 147.384C386.603 148.493 383.701 149.048 380.458 149.048Z" fill="#FF8F2D"/>
</svg>
